<svg xmlns="http://www.w3.org/2000/svg" xmlns:xlink="http://www.w3.org/1999/xlink" width="399" height="475" viewBox="0 0 399 475"><defs><clipPath id="a"><rect width="399" height="475" fill="none"/></clipPath></defs><g clip-path="url(#a)"><g transform="translate(-796 -206)"><circle cx="5" cy="5" r="5" transform="translate(796 206)" fill="#e4e9ed"/><circle cx="5" cy="5" r="5" transform="translate(816 206)" fill="#e4e9ed"/><circle cx="5" cy="5" r="5" transform="translate(836 206)" fill="#e4e9ed"/></g><g transform="translate(-736 -206)"><circle cx="5" cy="5" r="5" transform="translate(796 206)" fill="#e4e9ed"/><circle cx="5" cy="5" r="5" transform="translate(816 206)" fill="#e4e9ed"/><circle cx="5" cy="5" r="5" transform="translate(836 206)" fill="#e4e9ed"/></g><g transform="translate(-676 -206)"><circle cx="5" cy="5" r="5" transform="translate(796 206)" fill="#e4e9ed"/><circle cx="5" cy="5" r="5" transform="translate(816 206)" fill="#e4e9ed"/><circle cx="5" cy="5" r="5" transform="translate(836 206)" fill="#e4e9ed"/></g><g transform="translate(-616 -206)"><circle cx="5" cy="5" r="5" transform="translate(796 206)" fill="#e4e9ed"/><circle cx="5" cy="5" r="5" transform="translate(816 206)" fill="#e4e9ed"/><circle cx="5" cy="5" r="5" transform="translate(836 206)" fill="#e4e9ed"/></g><g transform="translate(-556 -206)"><circle cx="5" cy="5" r="5" transform="translate(796 206)" fill="#e4e9ed"/><circle cx="5" cy="5" r="5" transform="translate(816 206)" fill="#e4e9ed"/><circle cx="5" cy="5" r="5" transform="translate(836 206)" fill="#e4e9ed"/></g><g transform="translate(-496 -206)"><circle cx="5" cy="5" r="5" transform="translate(796 206)" fill="#e4e9ed"/><circle cx="5" cy="5" r="5" transform="translate(816 206)" fill="#e4e9ed"/><circle cx="5" cy="5" r="5" transform="translate(836 206)" fill="#e4e9ed"/></g><g transform="translate(-436 -206)"><circle cx="5" cy="5" r="5" transform="translate(796 206)" fill="#e4e9ed"/><circle cx="5" cy="5" r="5" transform="translate(816 206)" fill="#e4e9ed"/><circle cx="5" cy="5" r="5" transform="translate(836 206)" fill="#e4e9ed"/></g><g transform="translate(-796 -186)"><circle cx="5" cy="5" r="5" transform="translate(796 206)" fill="#e4e9ed"/><circle cx="5" cy="5" r="5" transform="translate(816 206)" fill="#e4e9ed"/><circle cx="5" cy="5" r="5" transform="translate(836 206)" fill="#e4e9ed"/></g><g transform="translate(-736 -186)"><circle cx="5" cy="5" r="5" transform="translate(796 206)" fill="#e4e9ed"/><circle cx="5" cy="5" r="5" transform="translate(816 206)" fill="#e4e9ed"/><circle cx="5" cy="5" r="5" transform="translate(836 206)" fill="#e4e9ed"/></g><g transform="translate(-676 -186)"><circle cx="5" cy="5" r="5" transform="translate(796 206)" fill="#e4e9ed"/><circle cx="5" cy="5" r="5" transform="translate(816 206)" fill="#e4e9ed"/><circle cx="5" cy="5" r="5" transform="translate(836 206)" fill="#e4e9ed"/></g><g transform="translate(-616 -186)"><circle cx="5" cy="5" r="5" transform="translate(796 206)" fill="#e4e9ed"/><circle cx="5" cy="5" r="5" transform="translate(816 206)" fill="#e4e9ed"/><circle cx="5" cy="5" r="5" transform="translate(836 206)" fill="#e4e9ed"/></g><g transform="translate(-556 -186)"><circle cx="5" cy="5" r="5" transform="translate(796 206)" fill="#e4e9ed"/><circle cx="5" cy="5" r="5" transform="translate(816 206)" fill="#e4e9ed"/><circle cx="5" cy="5" r="5" transform="translate(836 206)" fill="#e4e9ed"/></g><g transform="translate(-496 -186)"><circle cx="5" cy="5" r="5" transform="translate(796 206)" fill="#e4e9ed"/><circle cx="5" cy="5" r="5" transform="translate(816 206)" fill="#e4e9ed"/><circle cx="5" cy="5" r="5" transform="translate(836 206)" fill="#e4e9ed"/></g><g transform="translate(-436 -186)"><circle cx="5" cy="5" r="5" transform="translate(796 206)" fill="#e4e9ed"/><circle cx="5" cy="5" r="5" transform="translate(816 206)" fill="#e4e9ed"/><circle cx="5" cy="5" r="5" transform="translate(836 206)" fill="#e4e9ed"/></g><g transform="translate(-796 -166)"><circle cx="5" cy="5" r="5" transform="translate(796 206)" fill="#e4e9ed"/><circle cx="5" cy="5" r="5" transform="translate(816 206)" fill="#e4e9ed"/><circle cx="5" cy="5" r="5" transform="translate(836 206)" fill="#e4e9ed"/></g><g transform="translate(-736 -166)"><circle cx="5" cy="5" r="5" transform="translate(796 206)" fill="#e4e9ed"/><circle cx="5" cy="5" r="5" transform="translate(816 206)" fill="#e4e9ed"/><circle cx="5" cy="5" r="5" transform="translate(836 206)" fill="#e4e9ed"/></g><g transform="translate(-676 -166)"><circle cx="5" cy="5" r="5" transform="translate(796 206)" fill="#e4e9ed"/><circle cx="5" cy="5" r="5" transform="translate(816 206)" fill="#e4e9ed"/><circle cx="5" cy="5" r="5" transform="translate(836 206)" fill="#e4e9ed"/></g><g transform="translate(-616 -166)"><circle cx="5" cy="5" r="5" transform="translate(796 206)" fill="#e4e9ed"/><circle cx="5" cy="5" r="5" transform="translate(816 206)" fill="#e4e9ed"/><circle cx="5" cy="5" r="5" transform="translate(836 206)" fill="#e4e9ed"/></g><g transform="translate(-556 -166)"><circle cx="5" cy="5" r="5" transform="translate(796 206)" fill="#e4e9ed"/><circle cx="5" cy="5" r="5" transform="translate(816 206)" fill="#e4e9ed"/><circle cx="5" cy="5" r="5" transform="translate(836 206)" fill="#e4e9ed"/></g><g transform="translate(-496 -166)"><circle cx="5" cy="5" r="5" transform="translate(796 206)" fill="#e4e9ed"/><circle cx="5" cy="5" r="5" transform="translate(816 206)" fill="#e4e9ed"/><circle cx="5" cy="5" r="5" transform="translate(836 206)" fill="#e4e9ed"/></g><g transform="translate(-436 -166)"><circle cx="5" cy="5" r="5" transform="translate(796 206)" fill="#e4e9ed"/><circle cx="5" cy="5" r="5" transform="translate(816 206)" fill="#e4e9ed"/><circle cx="5" cy="5" r="5" transform="translate(836 206)" fill="#e4e9ed"/></g><g transform="translate(-796 -146)"><circle cx="5" cy="5" r="5" transform="translate(796 206)" fill="#e4e9ed"/><circle cx="5" cy="5" r="5" transform="translate(816 206)" fill="#e4e9ed"/><circle cx="5" cy="5" r="5" transform="translate(836 206)" fill="#e4e9ed"/></g><g transform="translate(-736 -146)"><circle cx="5" cy="5" r="5" transform="translate(796 206)" fill="#e4e9ed"/><circle cx="5" cy="5" r="5" transform="translate(816 206)" fill="#e4e9ed"/><circle cx="5" cy="5" r="5" transform="translate(836 206)" fill="#e4e9ed"/></g><g transform="translate(-676 -146)"><circle cx="5" cy="5" r="5" transform="translate(796 206)" fill="#e4e9ed"/><circle cx="5" cy="5" r="5" transform="translate(816 206)" fill="#e4e9ed"/><circle cx="5" cy="5" r="5" transform="translate(836 206)" fill="#e4e9ed"/></g><g transform="translate(-616 -146)"><circle cx="5" cy="5" r="5" transform="translate(796 206)" fill="#e4e9ed"/><circle cx="5" cy="5" r="5" transform="translate(816 206)" fill="#e4e9ed"/><circle cx="5" cy="5" r="5" transform="translate(836 206)" fill="#e4e9ed"/></g><g transform="translate(-556 -146)"><circle cx="5" cy="5" r="5" transform="translate(796 206)" fill="#e4e9ed"/><circle cx="5" cy="5" r="5" transform="translate(816 206)" fill="#e4e9ed"/><circle cx="5" cy="5" r="5" transform="translate(836 206)" fill="#e4e9ed"/></g><g transform="translate(-496 -146)"><circle cx="5" cy="5" r="5" transform="translate(796 206)" fill="#e4e9ed"/><circle cx="5" cy="5" r="5" transform="translate(816 206)" fill="#e4e9ed"/><circle cx="5" cy="5" r="5" transform="translate(836 206)" fill="#e4e9ed"/></g><g transform="translate(-436 -146)"><circle cx="5" cy="5" r="5" transform="translate(796 206)" fill="#e4e9ed"/><circle cx="5" cy="5" r="5" transform="translate(816 206)" fill="#e4e9ed"/><circle cx="5" cy="5" r="5" transform="translate(836 206)" fill="#e4e9ed"/></g><g transform="translate(-796 -126)"><circle cx="5" cy="5" r="5" transform="translate(796 206)" fill="#e4e9ed"/><circle cx="5" cy="5" r="5" transform="translate(816 206)" fill="#e4e9ed"/><circle cx="5" cy="5" r="5" transform="translate(836 206)" fill="#e4e9ed"/></g><g transform="translate(-736 -126)"><circle cx="5" cy="5" r="5" transform="translate(796 206)" fill="#e4e9ed"/><circle cx="5" cy="5" r="5" transform="translate(816 206)" fill="#e4e9ed"/><circle cx="5" cy="5" r="5" transform="translate(836 206)" fill="#e4e9ed"/></g><g transform="translate(-676 -126)"><circle cx="5" cy="5" r="5" transform="translate(796 206)" fill="#e4e9ed"/><circle cx="5" cy="5" r="5" transform="translate(816 206)" fill="#e4e9ed"/><circle cx="5" cy="5" r="5" transform="translate(836 206)" fill="#e4e9ed"/></g><g transform="translate(-616 -126)"><circle cx="5" cy="5" r="5" transform="translate(796 206)" fill="#e4e9ed"/><circle cx="5" cy="5" r="5" transform="translate(816 206)" fill="#e4e9ed"/><circle cx="5" cy="5" r="5" transform="translate(836 206)" fill="#e4e9ed"/></g><g transform="translate(-556 -126)"><circle cx="5" cy="5" r="5" transform="translate(796 206)" fill="#e4e9ed"/><circle cx="5" cy="5" r="5" transform="translate(816 206)" fill="#e4e9ed"/><circle cx="5" cy="5" r="5" transform="translate(836 206)" fill="#e4e9ed"/></g><g transform="translate(-496 -126)"><circle cx="5" cy="5" r="5" transform="translate(796 206)" fill="#e4e9ed"/><circle cx="5" cy="5" r="5" transform="translate(816 206)" fill="#e4e9ed"/><circle cx="5" cy="5" r="5" transform="translate(836 206)" fill="#e4e9ed"/></g><g transform="translate(-436 -126)"><circle cx="5" cy="5" r="5" transform="translate(796 206)" fill="#e4e9ed"/><circle cx="5" cy="5" r="5" transform="translate(816 206)" fill="#e4e9ed"/><circle cx="5" cy="5" r="5" transform="translate(836 206)" fill="#e4e9ed"/></g><g transform="translate(-796 -106)"><circle cx="5" cy="5" r="5" transform="translate(796 206)" fill="#e4e9ed"/><circle cx="5" cy="5" r="5" transform="translate(816 206)" fill="#e4e9ed"/><circle cx="5" cy="5" r="5" transform="translate(836 206)" fill="#e4e9ed"/></g><g transform="translate(-736 -106)"><circle cx="5" cy="5" r="5" transform="translate(796 206)" fill="#e4e9ed"/><circle cx="5" cy="5" r="5" transform="translate(816 206)" fill="#e4e9ed"/><circle cx="5" cy="5" r="5" transform="translate(836 206)" fill="#e4e9ed"/></g><g transform="translate(-676 -106)"><circle cx="5" cy="5" r="5" transform="translate(796 206)" fill="#e4e9ed"/><circle cx="5" cy="5" r="5" transform="translate(816 206)" fill="#e4e9ed"/><circle cx="5" cy="5" r="5" transform="translate(836 206)" fill="#e4e9ed"/></g><g transform="translate(-616 -106)"><circle cx="5" cy="5" r="5" transform="translate(796 206)" fill="#e4e9ed"/><circle cx="5" cy="5" r="5" transform="translate(816 206)" fill="#e4e9ed"/><circle cx="5" cy="5" r="5" transform="translate(836 206)" fill="#e4e9ed"/></g><g transform="translate(-556 -106)"><circle cx="5" cy="5" r="5" transform="translate(796 206)" fill="#e4e9ed"/><circle cx="5" cy="5" r="5" transform="translate(816 206)" fill="#e4e9ed"/><circle cx="5" cy="5" r="5" transform="translate(836 206)" fill="#e4e9ed"/></g><g transform="translate(-496 -106)"><circle cx="5" cy="5" r="5" transform="translate(796 206)" fill="#e4e9ed"/><circle cx="5" cy="5" r="5" transform="translate(816 206)" fill="#e4e9ed"/><circle cx="5" cy="5" r="5" transform="translate(836 206)" fill="#e4e9ed"/></g><g transform="translate(-436 -106)"><circle cx="5" cy="5" r="5" transform="translate(796 206)" fill="#e4e9ed"/><circle cx="5" cy="5" r="5" transform="translate(816 206)" fill="#e4e9ed"/><circle cx="5" cy="5" r="5" transform="translate(836 206)" fill="#e4e9ed"/></g><g transform="translate(-796 -86)"><circle cx="5" cy="5" r="5" transform="translate(796 206)" fill="#e4e9ed"/><circle cx="5" cy="5" r="5" transform="translate(816 206)" fill="#e4e9ed"/><circle cx="5" cy="5" r="5" transform="translate(836 206)" fill="#e4e9ed"/></g><g transform="translate(-736 -86)"><circle cx="5" cy="5" r="5" transform="translate(796 206)" fill="#e4e9ed"/><circle cx="5" cy="5" r="5" transform="translate(816 206)" fill="#e4e9ed"/><circle cx="5" cy="5" r="5" transform="translate(836 206)" fill="#e4e9ed"/></g><g transform="translate(-676 -86)"><circle cx="5" cy="5" r="5" transform="translate(796 206)" fill="#e4e9ed"/><circle cx="5" cy="5" r="5" transform="translate(816 206)" fill="#e4e9ed"/><circle cx="5" cy="5" r="5" transform="translate(836 206)" fill="#e4e9ed"/></g><g transform="translate(-616 -86)"><circle cx="5" cy="5" r="5" transform="translate(796 206)" fill="#e4e9ed"/><circle cx="5" cy="5" r="5" transform="translate(816 206)" fill="#e4e9ed"/><circle cx="5" cy="5" r="5" transform="translate(836 206)" fill="#e4e9ed"/></g><g transform="translate(-556 -86)"><circle cx="5" cy="5" r="5" transform="translate(796 206)" fill="#e4e9ed"/><circle cx="5" cy="5" r="5" transform="translate(816 206)" fill="#e4e9ed"/><circle cx="5" cy="5" r="5" transform="translate(836 206)" fill="#e4e9ed"/></g><g transform="translate(-496 -86)"><circle cx="5" cy="5" r="5" transform="translate(796 206)" fill="#e4e9ed"/><circle cx="5" cy="5" r="5" transform="translate(816 206)" fill="#e4e9ed"/><circle cx="5" cy="5" r="5" transform="translate(836 206)" fill="#e4e9ed"/></g><g transform="translate(-436 -86)"><circle cx="5" cy="5" r="5" transform="translate(796 206)" fill="#e4e9ed"/><circle cx="5" cy="5" r="5" transform="translate(816 206)" fill="#e4e9ed"/><circle cx="5" cy="5" r="5" transform="translate(836 206)" fill="#e4e9ed"/></g><g transform="translate(-796 -66)"><circle cx="5" cy="5" r="5" transform="translate(796 206)" fill="#e4e9ed"/><circle cx="5" cy="5" r="5" transform="translate(816 206)" fill="#e4e9ed"/><circle cx="5" cy="5" r="5" transform="translate(836 206)" fill="#e4e9ed"/></g><g transform="translate(-736 -66)"><circle cx="5" cy="5" r="5" transform="translate(796 206)" fill="#e4e9ed"/><circle cx="5" cy="5" r="5" transform="translate(816 206)" fill="#e4e9ed"/><circle cx="5" cy="5" r="5" transform="translate(836 206)" fill="#e4e9ed"/></g><g transform="translate(-676 -66)"><circle cx="5" cy="5" r="5" transform="translate(796 206)" fill="#e4e9ed"/><circle cx="5" cy="5" r="5" transform="translate(816 206)" fill="#e4e9ed"/><circle cx="5" cy="5" r="5" transform="translate(836 206)" fill="#e4e9ed"/></g><g transform="translate(-616 -66)"><circle cx="5" cy="5" r="5" transform="translate(796 206)" fill="#e4e9ed"/><circle cx="5" cy="5" r="5" transform="translate(816 206)" fill="#e4e9ed"/><circle cx="5" cy="5" r="5" transform="translate(836 206)" fill="#e4e9ed"/></g><g transform="translate(-556 -66)"><circle cx="5" cy="5" r="5" transform="translate(796 206)" fill="#e4e9ed"/><circle cx="5" cy="5" r="5" transform="translate(816 206)" fill="#e4e9ed"/><circle cx="5" cy="5" r="5" transform="translate(836 206)" fill="#e4e9ed"/></g><g transform="translate(-496 -66)"><circle cx="5" cy="5" r="5" transform="translate(796 206)" fill="#e4e9ed"/><circle cx="5" cy="5" r="5" transform="translate(816 206)" fill="#e4e9ed"/><circle cx="5" cy="5" r="5" transform="translate(836 206)" fill="#e4e9ed"/></g><g transform="translate(-436 -66)"><circle cx="5" cy="5" r="5" transform="translate(796 206)" fill="#e4e9ed"/><circle cx="5" cy="5" r="5" transform="translate(816 206)" fill="#e4e9ed"/><circle cx="5" cy="5" r="5" transform="translate(836 206)" fill="#e4e9ed"/></g><g transform="translate(-796 -46)"><circle cx="5" cy="5" r="5" transform="translate(796 206)" fill="#e4e9ed"/><circle cx="5" cy="5" r="5" transform="translate(816 206)" fill="#e4e9ed"/><circle cx="5" cy="5" r="5" transform="translate(836 206)" fill="#e4e9ed"/></g><g transform="translate(-736 -46)"><circle cx="5" cy="5" r="5" transform="translate(796 206)" fill="#e4e9ed"/><circle cx="5" cy="5" r="5" transform="translate(816 206)" fill="#e4e9ed"/><circle cx="5" cy="5" r="5" transform="translate(836 206)" fill="#e4e9ed"/></g><g transform="translate(-676 -46)"><circle cx="5" cy="5" r="5" transform="translate(796 206)" fill="#e4e9ed"/><circle cx="5" cy="5" r="5" transform="translate(816 206)" fill="#e4e9ed"/><circle cx="5" cy="5" r="5" transform="translate(836 206)" fill="#e4e9ed"/></g><g transform="translate(-616 -46)"><circle cx="5" cy="5" r="5" transform="translate(796 206)" fill="#e4e9ed"/><circle cx="5" cy="5" r="5" transform="translate(816 206)" fill="#e4e9ed"/><circle cx="5" cy="5" r="5" transform="translate(836 206)" fill="#e4e9ed"/></g><g transform="translate(-556 -46)"><circle cx="5" cy="5" r="5" transform="translate(796 206)" fill="#e4e9ed"/><circle cx="5" cy="5" r="5" transform="translate(816 206)" fill="#e4e9ed"/><circle cx="5" cy="5" r="5" transform="translate(836 206)" fill="#e4e9ed"/></g><g transform="translate(-496 -46)"><circle cx="5" cy="5" r="5" transform="translate(796 206)" fill="#e4e9ed"/><circle cx="5" cy="5" r="5" transform="translate(816 206)" fill="#e4e9ed"/><circle cx="5" cy="5" r="5" transform="translate(836 206)" fill="#e4e9ed"/></g><g transform="translate(-436 -46)"><circle cx="5" cy="5" r="5" transform="translate(796 206)" fill="#e4e9ed"/><circle cx="5" cy="5" r="5" transform="translate(816 206)" fill="#e4e9ed"/><circle cx="5" cy="5" r="5" transform="translate(836 206)" fill="#e4e9ed"/></g><g transform="translate(-796 -26)"><circle cx="5" cy="5" r="5" transform="translate(796 206)" fill="#e4e9ed"/><circle cx="5" cy="5" r="5" transform="translate(816 206)" fill="#e4e9ed"/><circle cx="5" cy="5" r="5" transform="translate(836 206)" fill="#e4e9ed"/></g><g transform="translate(-736 -26)"><circle cx="5" cy="5" r="5" transform="translate(796 206)" fill="#e4e9ed"/><circle cx="5" cy="5" r="5" transform="translate(816 206)" fill="#e4e9ed"/><circle cx="5" cy="5" r="5" transform="translate(836 206)" fill="#e4e9ed"/></g><g transform="translate(-676 -26)"><circle cx="5" cy="5" r="5" transform="translate(796 206)" fill="#e4e9ed"/><circle cx="5" cy="5" r="5" transform="translate(816 206)" fill="#e4e9ed"/><circle cx="5" cy="5" r="5" transform="translate(836 206)" fill="#e4e9ed"/></g><g transform="translate(-616 -26)"><circle cx="5" cy="5" r="5" transform="translate(796 206)" fill="#e4e9ed"/><circle cx="5" cy="5" r="5" transform="translate(816 206)" fill="#e4e9ed"/><circle cx="5" cy="5" r="5" transform="translate(836 206)" fill="#e4e9ed"/></g><g transform="translate(-556 -26)"><circle cx="5" cy="5" r="5" transform="translate(796 206)" fill="#e4e9ed"/><circle cx="5" cy="5" r="5" transform="translate(816 206)" fill="#e4e9ed"/><circle cx="5" cy="5" r="5" transform="translate(836 206)" fill="#e4e9ed"/></g><g transform="translate(-496 -26)"><circle cx="5" cy="5" r="5" transform="translate(796 206)" fill="#e4e9ed"/><circle cx="5" cy="5" r="5" transform="translate(816 206)" fill="#e4e9ed"/><circle cx="5" cy="5" r="5" transform="translate(836 206)" fill="#e4e9ed"/></g><g transform="translate(-436 -26)"><circle cx="5" cy="5" r="5" transform="translate(796 206)" fill="#e4e9ed"/><circle cx="5" cy="5" r="5" transform="translate(816 206)" fill="#e4e9ed"/><circle cx="5" cy="5" r="5" transform="translate(836 206)" fill="#e4e9ed"/></g><g transform="translate(-796 -6)"><circle cx="5" cy="5" r="5" transform="translate(796 206)" fill="#e4e9ed"/><circle cx="5" cy="5" r="5" transform="translate(816 206)" fill="#e4e9ed"/><circle cx="5" cy="5" r="5" transform="translate(836 206)" fill="#e4e9ed"/></g><g transform="translate(-736 -6)"><circle cx="5" cy="5" r="5" transform="translate(796 206)" fill="#e4e9ed"/><circle cx="5" cy="5" r="5" transform="translate(816 206)" fill="#e4e9ed"/><circle cx="5" cy="5" r="5" transform="translate(836 206)" fill="#e4e9ed"/></g><g transform="translate(-676 -6)"><circle cx="5" cy="5" r="5" transform="translate(796 206)" fill="#e4e9ed"/><circle cx="5" cy="5" r="5" transform="translate(816 206)" fill="#e4e9ed"/><circle cx="5" cy="5" r="5" transform="translate(836 206)" fill="#e4e9ed"/></g><g transform="translate(-616 -6)"><circle cx="5" cy="5" r="5" transform="translate(796 206)" fill="#e4e9ed"/><circle cx="5" cy="5" r="5" transform="translate(816 206)" fill="#e4e9ed"/><circle cx="5" cy="5" r="5" transform="translate(836 206)" fill="#e4e9ed"/></g><g transform="translate(-556 -6)"><circle cx="5" cy="5" r="5" transform="translate(796 206)" fill="#e4e9ed"/><circle cx="5" cy="5" r="5" transform="translate(816 206)" fill="#e4e9ed"/><circle cx="5" cy="5" r="5" transform="translate(836 206)" fill="#e4e9ed"/></g><g transform="translate(-496 -6)"><circle cx="5" cy="5" r="5" transform="translate(796 206)" fill="#e4e9ed"/><circle cx="5" cy="5" r="5" transform="translate(816 206)" fill="#e4e9ed"/><circle cx="5" cy="5" r="5" transform="translate(836 206)" fill="#e4e9ed"/></g><g transform="translate(-436 -6)"><circle cx="5" cy="5" r="5" transform="translate(796 206)" fill="#e4e9ed"/><circle cx="5" cy="5" r="5" transform="translate(816 206)" fill="#e4e9ed"/><circle cx="5" cy="5" r="5" transform="translate(836 206)" fill="#e4e9ed"/></g><g transform="translate(-796 14)"><circle cx="5" cy="5" r="5" transform="translate(796 206)" fill="#e4e9ed"/><circle cx="5" cy="5" r="5" transform="translate(816 206)" fill="#e4e9ed"/><circle cx="5" cy="5" r="5" transform="translate(836 206)" fill="#e4e9ed"/></g><g transform="translate(-736 14)"><circle cx="5" cy="5" r="5" transform="translate(796 206)" fill="#e4e9ed"/><circle cx="5" cy="5" r="5" transform="translate(816 206)" fill="#e4e9ed"/><circle cx="5" cy="5" r="5" transform="translate(836 206)" fill="#e4e9ed"/></g><g transform="translate(-676 14)"><circle cx="5" cy="5" r="5" transform="translate(796 206)" fill="#e4e9ed"/><circle cx="5" cy="5" r="5" transform="translate(816 206)" fill="#e4e9ed"/><circle cx="5" cy="5" r="5" transform="translate(836 206)" fill="#e4e9ed"/></g><g transform="translate(-616 14)"><circle cx="5" cy="5" r="5" transform="translate(796 206)" fill="#e4e9ed"/><circle cx="5" cy="5" r="5" transform="translate(816 206)" fill="#e4e9ed"/><circle cx="5" cy="5" r="5" transform="translate(836 206)" fill="#e4e9ed"/></g><g transform="translate(-556 14)"><circle cx="5" cy="5" r="5" transform="translate(796 206)" fill="#e4e9ed"/><circle cx="5" cy="5" r="5" transform="translate(816 206)" fill="#e4e9ed"/><circle cx="5" cy="5" r="5" transform="translate(836 206)" fill="#e4e9ed"/></g><g transform="translate(-496 14)"><circle cx="5" cy="5" r="5" transform="translate(796 206)" fill="#e4e9ed"/><circle cx="5" cy="5" r="5" transform="translate(816 206)" fill="#e4e9ed"/><circle cx="5" cy="5" r="5" transform="translate(836 206)" fill="#e4e9ed"/></g><g transform="translate(-436 14)"><circle cx="5" cy="5" r="5" transform="translate(796 206)" fill="#e4e9ed"/><circle cx="5" cy="5" r="5" transform="translate(816 206)" fill="#e4e9ed"/><circle cx="5" cy="5" r="5" transform="translate(836 206)" fill="#e4e9ed"/></g><g transform="translate(-796 34)"><circle cx="5" cy="5" r="5" transform="translate(796 206)" fill="#e4e9ed"/><circle cx="5" cy="5" r="5" transform="translate(816 206)" fill="#e4e9ed"/><circle cx="5" cy="5" r="5" transform="translate(836 206)" fill="#e4e9ed"/></g><g transform="translate(-736 34)"><circle cx="5" cy="5" r="5" transform="translate(796 206)" fill="#e4e9ed"/><circle cx="5" cy="5" r="5" transform="translate(816 206)" fill="#e4e9ed"/><circle cx="5" cy="5" r="5" transform="translate(836 206)" fill="#e4e9ed"/></g><g transform="translate(-676 34)"><circle cx="5" cy="5" r="5" transform="translate(796 206)" fill="#e4e9ed"/><circle cx="5" cy="5" r="5" transform="translate(816 206)" fill="#e4e9ed"/><circle cx="5" cy="5" r="5" transform="translate(836 206)" fill="#e4e9ed"/></g><g transform="translate(-616 34)"><circle cx="5" cy="5" r="5" transform="translate(796 206)" fill="#e4e9ed"/><circle cx="5" cy="5" r="5" transform="translate(816 206)" fill="#e4e9ed"/><circle cx="5" cy="5" r="5" transform="translate(836 206)" fill="#e4e9ed"/></g><g transform="translate(-556 34)"><circle cx="5" cy="5" r="5" transform="translate(796 206)" fill="#e4e9ed"/><circle cx="5" cy="5" r="5" transform="translate(816 206)" fill="#e4e9ed"/><circle cx="5" cy="5" r="5" transform="translate(836 206)" fill="#e4e9ed"/></g><g transform="translate(-496 34)"><circle cx="5" cy="5" r="5" transform="translate(796 206)" fill="#e4e9ed"/><circle cx="5" cy="5" r="5" transform="translate(816 206)" fill="#e4e9ed"/><circle cx="5" cy="5" r="5" transform="translate(836 206)" fill="#e4e9ed"/></g><g transform="translate(-436 34)"><circle cx="5" cy="5" r="5" transform="translate(796 206)" fill="#e4e9ed"/><circle cx="5" cy="5" r="5" transform="translate(816 206)" fill="#e4e9ed"/><circle cx="5" cy="5" r="5" transform="translate(836 206)" fill="#e4e9ed"/></g><g transform="translate(-796 54)"><circle cx="5" cy="5" r="5" transform="translate(796 206)" fill="#e4e9ed"/><circle cx="5" cy="5" r="5" transform="translate(816 206)" fill="#e4e9ed"/><circle cx="5" cy="5" r="5" transform="translate(836 206)" fill="#e4e9ed"/></g><g transform="translate(-736 54)"><circle cx="5" cy="5" r="5" transform="translate(796 206)" fill="#e4e9ed"/><circle cx="5" cy="5" r="5" transform="translate(816 206)" fill="#e4e9ed"/><circle cx="5" cy="5" r="5" transform="translate(836 206)" fill="#e4e9ed"/></g><g transform="translate(-676 54)"><circle cx="5" cy="5" r="5" transform="translate(796 206)" fill="#e4e9ed"/><circle cx="5" cy="5" r="5" transform="translate(816 206)" fill="#e4e9ed"/><circle cx="5" cy="5" r="5" transform="translate(836 206)" fill="#e4e9ed"/></g><g transform="translate(-616 54)"><circle cx="5" cy="5" r="5" transform="translate(796 206)" fill="#e4e9ed"/><circle cx="5" cy="5" r="5" transform="translate(816 206)" fill="#e4e9ed"/><circle cx="5" cy="5" r="5" transform="translate(836 206)" fill="#e4e9ed"/></g><g transform="translate(-556 54)"><circle cx="5" cy="5" r="5" transform="translate(796 206)" fill="#e4e9ed"/><circle cx="5" cy="5" r="5" transform="translate(816 206)" fill="#e4e9ed"/><circle cx="5" cy="5" r="5" transform="translate(836 206)" fill="#e4e9ed"/></g><g transform="translate(-496 54)"><circle cx="5" cy="5" r="5" transform="translate(796 206)" fill="#e4e9ed"/><circle cx="5" cy="5" r="5" transform="translate(816 206)" fill="#e4e9ed"/><circle cx="5" cy="5" r="5" transform="translate(836 206)" fill="#e4e9ed"/></g><g transform="translate(-436 54)"><circle cx="5" cy="5" r="5" transform="translate(796 206)" fill="#e4e9ed"/><circle cx="5" cy="5" r="5" transform="translate(816 206)" fill="#e4e9ed"/><circle cx="5" cy="5" r="5" transform="translate(836 206)" fill="#e4e9ed"/></g><g transform="translate(-796 74)"><circle cx="5" cy="5" r="5" transform="translate(796 206)" fill="#e4e9ed"/><circle cx="5" cy="5" r="5" transform="translate(816 206)" fill="#e4e9ed"/><circle cx="5" cy="5" r="5" transform="translate(836 206)" fill="#e4e9ed"/></g><g transform="translate(-736 74)"><circle cx="5" cy="5" r="5" transform="translate(796 206)" fill="#e4e9ed"/><circle cx="5" cy="5" r="5" transform="translate(816 206)" fill="#e4e9ed"/><circle cx="5" cy="5" r="5" transform="translate(836 206)" fill="#e4e9ed"/></g><g transform="translate(-676 74)"><circle cx="5" cy="5" r="5" transform="translate(796 206)" fill="#e4e9ed"/><circle cx="5" cy="5" r="5" transform="translate(816 206)" fill="#e4e9ed"/><circle cx="5" cy="5" r="5" transform="translate(836 206)" fill="#e4e9ed"/></g><g transform="translate(-616 74)"><circle cx="5" cy="5" r="5" transform="translate(796 206)" fill="#e4e9ed"/><circle cx="5" cy="5" r="5" transform="translate(816 206)" fill="#e4e9ed"/><circle cx="5" cy="5" r="5" transform="translate(836 206)" fill="#e4e9ed"/></g><g transform="translate(-556 74)"><circle cx="5" cy="5" r="5" transform="translate(796 206)" fill="#e4e9ed"/><circle cx="5" cy="5" r="5" transform="translate(816 206)" fill="#e4e9ed"/><circle cx="5" cy="5" r="5" transform="translate(836 206)" fill="#e4e9ed"/></g><g transform="translate(-496 74)"><circle cx="5" cy="5" r="5" transform="translate(796 206)" fill="#e4e9ed"/><circle cx="5" cy="5" r="5" transform="translate(816 206)" fill="#e4e9ed"/><circle cx="5" cy="5" r="5" transform="translate(836 206)" fill="#e4e9ed"/></g><g transform="translate(-436 74)"><circle cx="5" cy="5" r="5" transform="translate(796 206)" fill="#e4e9ed"/><circle cx="5" cy="5" r="5" transform="translate(816 206)" fill="#e4e9ed"/><circle cx="5" cy="5" r="5" transform="translate(836 206)" fill="#e4e9ed"/></g><g transform="translate(-796 94)"><circle cx="5" cy="5" r="5" transform="translate(796 206)" fill="#e4e9ed"/><circle cx="5" cy="5" r="5" transform="translate(816 206)" fill="#e4e9ed"/><circle cx="5" cy="5" r="5" transform="translate(836 206)" fill="#e4e9ed"/></g><g transform="translate(-736 94)"><circle cx="5" cy="5" r="5" transform="translate(796 206)" fill="#e4e9ed"/><circle cx="5" cy="5" r="5" transform="translate(816 206)" fill="#e4e9ed"/><circle cx="5" cy="5" r="5" transform="translate(836 206)" fill="#e4e9ed"/></g><g transform="translate(-676 94)"><circle cx="5" cy="5" r="5" transform="translate(796 206)" fill="#e4e9ed"/><circle cx="5" cy="5" r="5" transform="translate(816 206)" fill="#e4e9ed"/><circle cx="5" cy="5" r="5" transform="translate(836 206)" fill="#e4e9ed"/></g><g transform="translate(-616 94)"><circle cx="5" cy="5" r="5" transform="translate(796 206)" fill="#e4e9ed"/><circle cx="5" cy="5" r="5" transform="translate(816 206)" fill="#e4e9ed"/><circle cx="5" cy="5" r="5" transform="translate(836 206)" fill="#e4e9ed"/></g><g transform="translate(-556 94)"><circle cx="5" cy="5" r="5" transform="translate(796 206)" fill="#e4e9ed"/><circle cx="5" cy="5" r="5" transform="translate(816 206)" fill="#e4e9ed"/><circle cx="5" cy="5" r="5" transform="translate(836 206)" fill="#e4e9ed"/></g><g transform="translate(-496 94)"><circle cx="5" cy="5" r="5" transform="translate(796 206)" fill="#e4e9ed"/><circle cx="5" cy="5" r="5" transform="translate(816 206)" fill="#e4e9ed"/><circle cx="5" cy="5" r="5" transform="translate(836 206)" fill="#e4e9ed"/></g><g transform="translate(-436 94)"><circle cx="5" cy="5" r="5" transform="translate(796 206)" fill="#e4e9ed"/><circle cx="5" cy="5" r="5" transform="translate(816 206)" fill="#e4e9ed"/><circle cx="5" cy="5" r="5" transform="translate(836 206)" fill="#e4e9ed"/></g><g transform="translate(-796 114)"><circle cx="5" cy="5" r="5" transform="translate(796 206)" fill="#e4e9ed"/><circle cx="5" cy="5" r="5" transform="translate(816 206)" fill="#e4e9ed"/><circle cx="5" cy="5" r="5" transform="translate(836 206)" fill="#e4e9ed"/></g><g transform="translate(-736 114)"><circle cx="5" cy="5" r="5" transform="translate(796 206)" fill="#e4e9ed"/><circle cx="5" cy="5" r="5" transform="translate(816 206)" fill="#e4e9ed"/><circle cx="5" cy="5" r="5" transform="translate(836 206)" fill="#e4e9ed"/></g><g transform="translate(-676 114)"><circle cx="5" cy="5" r="5" transform="translate(796 206)" fill="#e4e9ed"/><circle cx="5" cy="5" r="5" transform="translate(816 206)" fill="#e4e9ed"/><circle cx="5" cy="5" r="5" transform="translate(836 206)" fill="#e4e9ed"/></g><g transform="translate(-616 114)"><circle cx="5" cy="5" r="5" transform="translate(796 206)" fill="#e4e9ed"/><circle cx="5" cy="5" r="5" transform="translate(816 206)" fill="#e4e9ed"/><circle cx="5" cy="5" r="5" transform="translate(836 206)" fill="#e4e9ed"/></g><g transform="translate(-556 114)"><circle cx="5" cy="5" r="5" transform="translate(796 206)" fill="#e4e9ed"/><circle cx="5" cy="5" r="5" transform="translate(816 206)" fill="#e4e9ed"/><circle cx="5" cy="5" r="5" transform="translate(836 206)" fill="#e4e9ed"/></g><g transform="translate(-496 114)"><circle cx="5" cy="5" r="5" transform="translate(796 206)" fill="#e4e9ed"/><circle cx="5" cy="5" r="5" transform="translate(816 206)" fill="#e4e9ed"/><circle cx="5" cy="5" r="5" transform="translate(836 206)" fill="#e4e9ed"/></g><g transform="translate(-436 114)"><circle cx="5" cy="5" r="5" transform="translate(796 206)" fill="#e4e9ed"/><circle cx="5" cy="5" r="5" transform="translate(816 206)" fill="#e4e9ed"/><circle cx="5" cy="5" r="5" transform="translate(836 206)" fill="#e4e9ed"/></g><g transform="translate(-796 134)"><circle cx="5" cy="5" r="5" transform="translate(796 206)" fill="#e4e9ed"/><circle cx="5" cy="5" r="5" transform="translate(816 206)" fill="#e4e9ed"/><circle cx="5" cy="5" r="5" transform="translate(836 206)" fill="#e4e9ed"/></g><g transform="translate(-736 134)"><circle cx="5" cy="5" r="5" transform="translate(796 206)" fill="#e4e9ed"/><circle cx="5" cy="5" r="5" transform="translate(816 206)" fill="#e4e9ed"/><circle cx="5" cy="5" r="5" transform="translate(836 206)" fill="#e4e9ed"/></g><g transform="translate(-676 134)"><circle cx="5" cy="5" r="5" transform="translate(796 206)" fill="#e4e9ed"/><circle cx="5" cy="5" r="5" transform="translate(816 206)" fill="#e4e9ed"/><circle cx="5" cy="5" r="5" transform="translate(836 206)" fill="#e4e9ed"/></g><g transform="translate(-616 134)"><circle cx="5" cy="5" r="5" transform="translate(796 206)" fill="#e4e9ed"/><circle cx="5" cy="5" r="5" transform="translate(816 206)" fill="#e4e9ed"/><circle cx="5" cy="5" r="5" transform="translate(836 206)" fill="#e4e9ed"/></g><g transform="translate(-556 134)"><circle cx="5" cy="5" r="5" transform="translate(796 206)" fill="#e4e9ed"/><circle cx="5" cy="5" r="5" transform="translate(816 206)" fill="#e4e9ed"/><circle cx="5" cy="5" r="5" transform="translate(836 206)" fill="#e4e9ed"/></g><g transform="translate(-496 134)"><circle cx="5" cy="5" r="5" transform="translate(796 206)" fill="#e4e9ed"/><circle cx="5" cy="5" r="5" transform="translate(816 206)" fill="#e4e9ed"/><circle cx="5" cy="5" r="5" transform="translate(836 206)" fill="#e4e9ed"/></g><g transform="translate(-436 134)"><circle cx="5" cy="5" r="5" transform="translate(796 206)" fill="#e4e9ed"/><circle cx="5" cy="5" r="5" transform="translate(816 206)" fill="#e4e9ed"/><circle cx="5" cy="5" r="5" transform="translate(836 206)" fill="#e4e9ed"/></g><g transform="translate(-796 154)"><circle cx="5" cy="5" r="5" transform="translate(796 206)" fill="#e4e9ed"/><circle cx="5" cy="5" r="5" transform="translate(816 206)" fill="#e4e9ed"/><circle cx="5" cy="5" r="5" transform="translate(836 206)" fill="#e4e9ed"/></g><g transform="translate(-736 154)"><circle cx="5" cy="5" r="5" transform="translate(796 206)" fill="#e4e9ed"/><circle cx="5" cy="5" r="5" transform="translate(816 206)" fill="#e4e9ed"/><circle cx="5" cy="5" r="5" transform="translate(836 206)" fill="#e4e9ed"/></g><g transform="translate(-676 154)"><circle cx="5" cy="5" r="5" transform="translate(796 206)" fill="#e4e9ed"/><circle cx="5" cy="5" r="5" transform="translate(816 206)" fill="#e4e9ed"/><circle cx="5" cy="5" r="5" transform="translate(836 206)" fill="#e4e9ed"/></g><g transform="translate(-616 154)"><circle cx="5" cy="5" r="5" transform="translate(796 206)" fill="#e4e9ed"/><circle cx="5" cy="5" r="5" transform="translate(816 206)" fill="#e4e9ed"/><circle cx="5" cy="5" r="5" transform="translate(836 206)" fill="#e4e9ed"/></g><g transform="translate(-556 154)"><circle cx="5" cy="5" r="5" transform="translate(796 206)" fill="#e4e9ed"/><circle cx="5" cy="5" r="5" transform="translate(816 206)" fill="#e4e9ed"/><circle cx="5" cy="5" r="5" transform="translate(836 206)" fill="#e4e9ed"/></g><g transform="translate(-496 154)"><circle cx="5" cy="5" r="5" transform="translate(796 206)" fill="#e4e9ed"/><circle cx="5" cy="5" r="5" transform="translate(816 206)" fill="#e4e9ed"/><circle cx="5" cy="5" r="5" transform="translate(836 206)" fill="#e4e9ed"/></g><g transform="translate(-436 154)"><circle cx="5" cy="5" r="5" transform="translate(796 206)" fill="#e4e9ed"/><circle cx="5" cy="5" r="5" transform="translate(816 206)" fill="#e4e9ed"/><circle cx="5" cy="5" r="5" transform="translate(836 206)" fill="#e4e9ed"/></g><g transform="translate(-796 174)"><circle cx="5" cy="5" r="5" transform="translate(796 206)" fill="#e4e9ed"/><circle cx="5" cy="5" r="5" transform="translate(816 206)" fill="#e4e9ed"/><circle cx="5" cy="5" r="5" transform="translate(836 206)" fill="#e4e9ed"/></g><g transform="translate(-736 174)"><circle cx="5" cy="5" r="5" transform="translate(796 206)" fill="#e4e9ed"/><circle cx="5" cy="5" r="5" transform="translate(816 206)" fill="#e4e9ed"/><circle cx="5" cy="5" r="5" transform="translate(836 206)" fill="#e4e9ed"/></g><g transform="translate(-676 174)"><circle cx="5" cy="5" r="5" transform="translate(796 206)" fill="#e4e9ed"/><circle cx="5" cy="5" r="5" transform="translate(816 206)" fill="#e4e9ed"/><circle cx="5" cy="5" r="5" transform="translate(836 206)" fill="#e4e9ed"/></g><g transform="translate(-616 174)"><circle cx="5" cy="5" r="5" transform="translate(796 206)" fill="#e4e9ed"/><circle cx="5" cy="5" r="5" transform="translate(816 206)" fill="#e4e9ed"/><circle cx="5" cy="5" r="5" transform="translate(836 206)" fill="#e4e9ed"/></g><g transform="translate(-556 174)"><circle cx="5" cy="5" r="5" transform="translate(796 206)" fill="#e4e9ed"/><circle cx="5" cy="5" r="5" transform="translate(816 206)" fill="#e4e9ed"/><circle cx="5" cy="5" r="5" transform="translate(836 206)" fill="#e4e9ed"/></g><g transform="translate(-496 174)"><circle cx="5" cy="5" r="5" transform="translate(796 206)" fill="#e4e9ed"/><circle cx="5" cy="5" r="5" transform="translate(816 206)" fill="#e4e9ed"/><circle cx="5" cy="5" r="5" transform="translate(836 206)" fill="#e4e9ed"/></g><g transform="translate(-436 174)"><circle cx="5" cy="5" r="5" transform="translate(796 206)" fill="#e4e9ed"/><circle cx="5" cy="5" r="5" transform="translate(816 206)" fill="#e4e9ed"/><circle cx="5" cy="5" r="5" transform="translate(836 206)" fill="#e4e9ed"/></g><g transform="translate(-796 194)"><circle cx="5" cy="5" r="5" transform="translate(796 206)" fill="#e4e9ed"/><circle cx="5" cy="5" r="5" transform="translate(816 206)" fill="#e4e9ed"/><circle cx="5" cy="5" r="5" transform="translate(836 206)" fill="#e4e9ed"/></g><g transform="translate(-736 194)"><circle cx="5" cy="5" r="5" transform="translate(796 206)" fill="#e4e9ed"/><circle cx="5" cy="5" r="5" transform="translate(816 206)" fill="#e4e9ed"/><circle cx="5" cy="5" r="5" transform="translate(836 206)" fill="#e4e9ed"/></g><g transform="translate(-676 194)"><circle cx="5" cy="5" r="5" transform="translate(796 206)" fill="#e4e9ed"/><circle cx="5" cy="5" r="5" transform="translate(816 206)" fill="#e4e9ed"/><circle cx="5" cy="5" r="5" transform="translate(836 206)" fill="#e4e9ed"/></g><g transform="translate(-616 194)"><circle cx="5" cy="5" r="5" transform="translate(796 206)" fill="#e4e9ed"/><circle cx="5" cy="5" r="5" transform="translate(816 206)" fill="#e4e9ed"/><circle cx="5" cy="5" r="5" transform="translate(836 206)" fill="#e4e9ed"/></g><g transform="translate(-556 194)"><circle cx="5" cy="5" r="5" transform="translate(796 206)" fill="#e4e9ed"/><circle cx="5" cy="5" r="5" transform="translate(816 206)" fill="#e4e9ed"/><circle cx="5" cy="5" r="5" transform="translate(836 206)" fill="#e4e9ed"/></g><g transform="translate(-496 194)"><circle cx="5" cy="5" r="5" transform="translate(796 206)" fill="#e4e9ed"/><circle cx="5" cy="5" r="5" transform="translate(816 206)" fill="#e4e9ed"/><circle cx="5" cy="5" r="5" transform="translate(836 206)" fill="#e4e9ed"/></g><g transform="translate(-436 194)"><circle cx="5" cy="5" r="5" transform="translate(796 206)" fill="#e4e9ed"/><circle cx="5" cy="5" r="5" transform="translate(816 206)" fill="#e4e9ed"/><circle cx="5" cy="5" r="5" transform="translate(836 206)" fill="#e4e9ed"/></g><g transform="translate(-796 214)"><circle cx="5" cy="5" r="5" transform="translate(796 206)" fill="#e4e9ed"/><circle cx="5" cy="5" r="5" transform="translate(816 206)" fill="#e4e9ed"/><circle cx="5" cy="5" r="5" transform="translate(836 206)" fill="#e4e9ed"/></g><g transform="translate(-736 214)"><circle cx="5" cy="5" r="5" transform="translate(796 206)" fill="#e4e9ed"/><circle cx="5" cy="5" r="5" transform="translate(816 206)" fill="#e4e9ed"/><circle cx="5" cy="5" r="5" transform="translate(836 206)" fill="#e4e9ed"/></g><g transform="translate(-676 214)"><circle cx="5" cy="5" r="5" transform="translate(796 206)" fill="#e4e9ed"/><circle cx="5" cy="5" r="5" transform="translate(816 206)" fill="#e4e9ed"/><circle cx="5" cy="5" r="5" transform="translate(836 206)" fill="#e4e9ed"/></g><g transform="translate(-616 214)"><circle cx="5" cy="5" r="5" transform="translate(796 206)" fill="#e4e9ed"/><circle cx="5" cy="5" r="5" transform="translate(816 206)" fill="#e4e9ed"/><circle cx="5" cy="5" r="5" transform="translate(836 206)" fill="#e4e9ed"/></g><g transform="translate(-556 214)"><circle cx="5" cy="5" r="5" transform="translate(796 206)" fill="#e4e9ed"/><circle cx="5" cy="5" r="5" transform="translate(816 206)" fill="#e4e9ed"/><circle cx="5" cy="5" r="5" transform="translate(836 206)" fill="#e4e9ed"/></g><g transform="translate(-496 214)"><circle cx="5" cy="5" r="5" transform="translate(796 206)" fill="#e4e9ed"/><circle cx="5" cy="5" r="5" transform="translate(816 206)" fill="#e4e9ed"/><circle cx="5" cy="5" r="5" transform="translate(836 206)" fill="#e4e9ed"/></g><g transform="translate(-436 214)"><circle cx="5" cy="5" r="5" transform="translate(796 206)" fill="#e4e9ed"/><circle cx="5" cy="5" r="5" transform="translate(816 206)" fill="#e4e9ed"/><circle cx="5" cy="5" r="5" transform="translate(836 206)" fill="#e4e9ed"/></g><g transform="translate(-796 234)"><circle cx="5" cy="5" r="5" transform="translate(796 206)" fill="#e4e9ed"/><circle cx="5" cy="5" r="5" transform="translate(816 206)" fill="#e4e9ed"/><circle cx="5" cy="5" r="5" transform="translate(836 206)" fill="#e4e9ed"/></g><g transform="translate(-736 234)"><circle cx="5" cy="5" r="5" transform="translate(796 206)" fill="#e4e9ed"/><circle cx="5" cy="5" r="5" transform="translate(816 206)" fill="#e4e9ed"/><circle cx="5" cy="5" r="5" transform="translate(836 206)" fill="#e4e9ed"/></g><g transform="translate(-676 234)"><circle cx="5" cy="5" r="5" transform="translate(796 206)" fill="#e4e9ed"/><circle cx="5" cy="5" r="5" transform="translate(816 206)" fill="#e4e9ed"/><circle cx="5" cy="5" r="5" transform="translate(836 206)" fill="#e4e9ed"/></g><g transform="translate(-616 234)"><circle cx="5" cy="5" r="5" transform="translate(796 206)" fill="#e4e9ed"/><circle cx="5" cy="5" r="5" transform="translate(816 206)" fill="#e4e9ed"/><circle cx="5" cy="5" r="5" transform="translate(836 206)" fill="#e4e9ed"/></g><g transform="translate(-556 234)"><circle cx="5" cy="5" r="5" transform="translate(796 206)" fill="#e4e9ed"/><circle cx="5" cy="5" r="5" transform="translate(816 206)" fill="#e4e9ed"/><circle cx="5" cy="5" r="5" transform="translate(836 206)" fill="#e4e9ed"/></g><g transform="translate(-496 234)"><circle cx="5" cy="5" r="5" transform="translate(796 206)" fill="#e4e9ed"/><circle cx="5" cy="5" r="5" transform="translate(816 206)" fill="#e4e9ed"/><circle cx="5" cy="5" r="5" transform="translate(836 206)" fill="#e4e9ed"/></g><g transform="translate(-436 234)"><circle cx="5" cy="5" r="5" transform="translate(796 206)" fill="#e4e9ed"/><circle cx="5" cy="5" r="5" transform="translate(816 206)" fill="#e4e9ed"/><circle cx="5" cy="5" r="5" transform="translate(836 206)" fill="#e4e9ed"/></g><g transform="translate(-796 254)"><circle cx="5" cy="5" r="5" transform="translate(796 206)" fill="#e4e9ed"/><circle cx="5" cy="5" r="5" transform="translate(816 206)" fill="#e4e9ed"/><circle cx="5" cy="5" r="5" transform="translate(836 206)" fill="#e4e9ed"/></g><g transform="translate(-736 254)"><circle cx="5" cy="5" r="5" transform="translate(796 206)" fill="#e4e9ed"/><circle cx="5" cy="5" r="5" transform="translate(816 206)" fill="#e4e9ed"/><circle cx="5" cy="5" r="5" transform="translate(836 206)" fill="#e4e9ed"/></g><g transform="translate(-676 254)"><circle cx="5" cy="5" r="5" transform="translate(796 206)" fill="#e4e9ed"/><circle cx="5" cy="5" r="5" transform="translate(816 206)" fill="#e4e9ed"/><circle cx="5" cy="5" r="5" transform="translate(836 206)" fill="#e4e9ed"/></g><g transform="translate(-616 254)"><circle cx="5" cy="5" r="5" transform="translate(796 206)" fill="#e4e9ed"/><circle cx="5" cy="5" r="5" transform="translate(816 206)" fill="#e4e9ed"/><circle cx="5" cy="5" r="5" transform="translate(836 206)" fill="#e4e9ed"/></g><g transform="translate(-556 254)"><circle cx="5" cy="5" r="5" transform="translate(796 206)" fill="#e4e9ed"/><circle cx="5" cy="5" r="5" transform="translate(816 206)" fill="#e4e9ed"/><circle cx="5" cy="5" r="5" transform="translate(836 206)" fill="#e4e9ed"/></g><g transform="translate(-496 254)"><circle cx="5" cy="5" r="5" transform="translate(796 206)" fill="#e4e9ed"/><circle cx="5" cy="5" r="5" transform="translate(816 206)" fill="#e4e9ed"/><circle cx="5" cy="5" r="5" transform="translate(836 206)" fill="#e4e9ed"/></g><g transform="translate(-436 254)"><circle cx="5" cy="5" r="5" transform="translate(796 206)" fill="#e4e9ed"/><circle cx="5" cy="5" r="5" transform="translate(816 206)" fill="#e4e9ed"/><circle cx="5" cy="5" r="5" transform="translate(836 206)" fill="#e4e9ed"/></g></g></svg>