<svg xmlns="http://www.w3.org/2000/svg" width="382.705" height="74.475" viewBox="0 0 382.705 74.475"><g transform="translate(-140 -84.858)"><g transform="translate(128.148 59.671)"><path d="M75.522,81.586V45.5a35.22,35.22,0,0,0-13-12.282,38.5,38.5,0,0,0-5.38-2.478,37.991,37.991,0,0,0-13.374-2.406A39.69,39.69,0,0,0,13.758,42.158l-1.906,2.215,12.8,12.206,2.121-2.241c5.194-5.489,10.814-8.158,17.181-8.158A17.75,17.75,0,0,1,57.123,51.5l.017.018V99.4h51.23l-8.342-17.816Z" fill="#1075bb"/><path d="M43.794,95.207a20.164,20.164,0,0,1-8.356-1.694,31.728,31.728,0,0,1-8.676-6.532l-2.22-2.206L12.071,97.787l2.18,2.128c4.945,4.826,9.738,8.242,14.246,10.156a39.508,39.508,0,0,0,15.492,2.9,43.624,43.624,0,0,0,7.945-.71v-18.7A19.8,19.8,0,0,1,43.794,95.207Z" transform="translate(-0.052 -13.309)" fill="#2e3192"/><path d="M77.637,29.452c3.013,1.635,9.382,5.585,13.4,11.6v-11.6Z" transform="translate(-14.511 -4.265)" fill="#2d2f93"/></g><path d="M176.918,57.081a15.7,15.7,0,0,1-12.5,5.858,15.3,15.3,0,0,1-11.237-4.328,14.337,14.337,0,0,1-4.424-10.791,15.177,15.177,0,0,1,1.979-7.713,14.627,14.627,0,0,1,5.583-5.446,15.835,15.835,0,0,1,7.867-2.037,16.37,16.37,0,0,1,7.145,1.555,15.331,15.331,0,0,1,5.547,4.565l.695.9,4.782-3.668-.648-.9a19.884,19.884,0,0,0-7.454-6.263,22.749,22.749,0,0,0-10.119-2.224,21.379,21.379,0,0,0-15.466,6.023,20.021,20.021,0,0,0-6.2,14.867,21.244,21.244,0,0,0,5.113,14.293c4.051,4.67,9.637,7.037,16.6,7.037a23.476,23.476,0,0,0,9.98-2.084A20.365,20.365,0,0,0,181.68,60.8l.717-.913-4.778-3.626ZM211.128,40.7a14.221,14.221,0,0,0-3.254-2.366,14.458,14.458,0,0,0-6.8-1.6A15.071,15.071,0,0,0,190,41.383a15.42,15.42,0,0,0-4.594,11.193,15.69,15.69,0,0,0,4.55,11.331,15.4,15.4,0,0,0,17.711,3.16,15.575,15.575,0,0,0,3.46-2.35v3.14h5.849V37.451h-5.849ZM210.074,58a9.406,9.406,0,0,1-3.658,3.618,9.887,9.887,0,0,1-13.681-3.8,10.262,10.262,0,0,1-.013-10.242,9.777,9.777,0,0,1,8.65-5.074,9.471,9.471,0,0,1,7.1,2.937,10.007,10.007,0,0,1,2.889,7.362A10.5,10.5,0,0,1,210.074,58Zm37.743-30.989h-5.9V37.451h-4.937v.182a7.345,7.345,0,0,0-7.809.483,11.314,11.314,0,0,0-1.722,1.408V37.451h-5.979V67.858h5.979V57.2c0-4.751.212-7.918.629-9.412a8.355,8.355,0,0,1,2.217-4.068,4.1,4.1,0,0,1,2.734-1.2,3.892,3.892,0,0,1,1.461.4l.9.391,1.586-2.564v2.112h4.937v25h5.9v-25h5.739v-5.41h-5.739ZM281.157,40.7a14.294,14.294,0,0,0-3.253-2.365,14.462,14.462,0,0,0-6.8-1.6,15.071,15.071,0,0,0-11.075,4.656,15.42,15.42,0,0,0-4.594,11.193,15.693,15.693,0,0,0,4.55,11.331,15.4,15.4,0,0,0,17.711,3.16,15.593,15.593,0,0,0,3.46-2.349v3.139h5.849V37.451h-5.849ZM280.1,58a9.394,9.394,0,0,1-3.658,3.618,9.884,9.884,0,0,1-13.679-3.8,10.253,10.253,0,0,1-.014-10.242A9.777,9.777,0,0,1,271.4,42.5a9.474,9.474,0,0,1,7.1,2.937,10.012,10.012,0,0,1,2.888,7.362A10.491,10.491,0,0,1,280.1,58ZM299.543,27.55h-6.082V67.858h20.713V61.9H299.543Zm32.232,9.177a15.078,15.078,0,0,0-11.644,5.106,16.209,16.209,0,0,0,.231,21.978,16.006,16.006,0,0,0,22.8,0,16.242,16.242,0,0,0,.23-22.005A15.089,15.089,0,0,0,331.775,36.727Zm8.513,21.211a9.414,9.414,0,0,1-3.565,3.639,10.222,10.222,0,0,1-9.921,0,9.285,9.285,0,0,1-3.565-3.639,10.358,10.358,0,0,1-1.333-5.129,9.961,9.961,0,0,1,2.92-7.27,9.533,9.533,0,0,1,13.865,0,9.94,9.94,0,0,1,2.932,7.269A10.359,10.359,0,0,1,340.288,57.938Zm35.946-17.295a15.208,15.208,0,0,0-3.633-2.5,14.678,14.678,0,0,0-6.379-1.417,15.707,15.707,0,0,0-15.684,15.721,15.352,15.352,0,0,0,2.014,7.727,14.878,14.878,0,0,0,5.709,5.611,15.962,15.962,0,0,0,14.6.581,14.806,14.806,0,0,0,3.342-2.149,12.069,12.069,0,0,1-.929,4.806,7.38,7.38,0,0,1-3.167,2.988,11.946,11.946,0,0,1-5.709,1.241,12.276,12.276,0,0,1-5.755-1.211,9.312,9.312,0,0,1-3.686-3.7l-.329-.572h-6.369l.743,1.617a17.56,17.56,0,0,0,3.585,5.393,14.19,14.19,0,0,0,5.1,3,20.547,20.547,0,0,0,6.884,1.09,17.419,17.419,0,0,0,9.037-2.255,12.411,12.411,0,0,0,5.422-6.548c.745-1.976,1.107-4.941,1.107-9.063V37.451h-5.9Zm-2.517,18.851a11.09,11.09,0,0,1-14.469-.031,9.059,9.059,0,0,1-2.758-6.835,10.167,10.167,0,0,1,1.349-5.108,9.69,9.69,0,0,1,3.7-3.683A10.374,10.374,0,0,1,366.7,42.5a9.929,9.929,0,0,1,4.945,1.3,8.973,8.973,0,0,1,3.522,3.507,10.343,10.343,0,0,1,1.251,5.116A9.417,9.417,0,0,1,373.718,59.494ZM390,34.123a4.127,4.127,0,0,0,0-8.253,3.958,3.958,0,0,0-2.894,1.215,4.114,4.114,0,0,0,0,5.824A3.961,3.961,0,0,0,390,34.123Zm21.55,17.752,10.394-14.425h-7.164l-6.822,9.483-6.893-9.483h-7.16l10.476,14.457L392.967,67.776V37.451h-5.9V67.858h12.972l7.93-11.006,7.976,11.006h7.23Z" transform="translate(99.531 71.13)"/></g></svg>